HIERARCHY
ROOT Hips
{
	OFFSET 0.00000 0.00000 0.00000
	CHANNELS 6 Xposition Yposition Zposition Zrotation Yrotation Xrotation 
	JOINT LHipJoint
	{
		OFFSET 0 0 0
		CHANNELS 3 Zrotation Yrotation Xrotation
		JOINT LeftHip
		{
			OFFSET 1.88772 -1.62769 0.85636
			CHANNELS 3 Zrotation Yrotation Xrotation
			JOINT LeftKnee
			{
				OFFSET 2.39836 -6.58946 0.00000
				CHANNELS 3 Zrotation Yrotation Xrotation
				JOINT LeftAnkle
				{
					OFFSET 2.78523 -7.65237 0.00000
					CHANNELS 3 Zrotation Yrotation Xrotation
					JOINT LeftToe
					{
						OFFSET 0.19551 -0.53715 1.90694
						CHANNELS 3 Zrotation Yrotation Xrotation
						End Site
						{
							OFFSET 0.00000 -0.00000 0.99735
						}
					}
				}
			}
		}
	}
	JOINT RHipJoint
	{
		OFFSET 0 0 0
		CHANNELS 3 Zrotation Yrotation Xrotation
		JOINT RightHip
		{
			OFFSET -1.74282 -1.62769 0.85636
			CHANNELS 3 Zrotation Yrotation Xrotation
			JOINT RightKnee
			{
				OFFSET -2.36062 -6.48575 0.00000
				CHANNELS 3 Zrotation Yrotation Xrotation
				JOINT RightAnkle
				{
					OFFSET -2.76258 -7.59014 0.00000
					CHANNELS 3 Zrotation Yrotation Xrotation
					JOINT RightToe
					{
						OFFSET -0.19308 -0.53048 2.03952
						CHANNELS 3 Zrotation Yrotation Xrotation
						End Site
						{
							OFFSET -0.00000 -0.00000 1.06031
						}
					}
				}
			}
		}
	}
	JOINT lowerback
	{
		OFFSET 0 0 0
		CHANNELS 3 Zrotation Yrotation Xrotation
		JOINT Chest
		{
			OFFSET -0.08299 2.03160 -0.30721
			CHANNELS 3 Zrotation Yrotation Xrotation
			JOINT Chest2
			{
				OFFSET -0.01030 2.00603 0.13891
				CHANNELS 3 Zrotation Yrotation Xrotation
				JOINT lowerneck
				{
					OFFSET 0 0 0
					CHANNELS 3 Zrotation Yrotation Xrotation
					JOINT Neck
					{
						OFFSET 0.04282 1.69578 0.19991
						CHANNELS 3 Zrotation Yrotation Xrotation
						JOINT Head
						{
							OFFSET -0.08665 1.66622 -0.03785
							CHANNELS 3 Zrotation Yrotation Xrotation
							End Site
							{
								OFFSET -0.03699 1.83329 -0.04094
							}
						}
					}
				}
				JOINT LeftCollar
				{
					OFFSET 0 0 0
					CHANNELS 3 Zrotation Yrotation Xrotation
					JOINT LeftShoulder
					{
						OFFSET 3.04219 1.50803 -0.05347
CHANNELS 3 Zrotation Xrotation Yrotation
						JOINT LeftElbow
						{
OFFSET 0 -5.791990 0.000000
CHANNELS 3 Zrotation Xrotation Yrotation
							JOINT LeftWrist
							{
OFFSET 0 -3.499080 0.000000
CHANNELS 3 Zrotation Xrotation Yrotation
								JOINT lhand
								{
									OFFSET 0 0 0
CHANNELS 3 Zrotation Xrotation Yrotation
									JOINT LFingers
									{
OFFSET 0 -0.593860 0.000000
CHANNELS 3 Zrotation Xrotation Yrotation
										End Site
										{
OFFSET 0 -0.478790 0.000000
										}
									}
								}
								JOINT LThumb
								{
OFFSET 0 0.000000 0.000000
CHANNELS 3 Zrotation Xrotation Yrotation
									End Site
									{
OFFSET 0 -0.486100 0.486100
									}
								}
							}
						}
					}
				}
				JOINT RightCollar
				{
					OFFSET 0 0 0
					CHANNELS 3 Zrotation Yrotation Xrotation
					JOINT RightShoulder
					{
						OFFSET -3.30316 1.18853 0.11175
CHANNELS 3 Zrotation Xrotation Yrotation
						JOINT RightElbow
						{
OFFSET 0 -5.737990 0.000000
CHANNELS 3 Zrotation Xrotation Yrotation
							JOINT RightWrist
							{
OFFSET 0 -3.579160 -0.000000
CHANNELS 3 Zrotation Xrotation Yrotation
								JOINT rhand
								{
									OFFSET 0 0 0
CHANNELS 3 Zrotation Xrotation Yrotation
									JOINT RFingers
									{
OFFSET 0 -0.615580 0.000000
CHANNELS 3 Zrotation Xrotation Yrotation
										End Site
										{
OFFSET 0 -0.496290 0.000000
										}
									}
								}
								JOINT RThumb
								{
OFFSET 0 0.000000 0.000000
CHANNELS 3 Zrotation Xrotation Yrotation
									End Site
									{
OFFSET 0 -0.503870 0.503870
									}
								}
							}
						}
					}
				}
			}
		}
	}
}
MOTION
Frames: 12
Frame Time: 0.008333333333333333
-12.571999 17.057426 -10.033154 5.863242 -21.235138 4.726914 0.000000 0.000000 0.000000 -24.678835 15.375066 -22.612832 4.574847 12.888465 38.952212 1.779782 14.646103 -34.068442 0.000743 -0.171003 -0.469720 0.000000 0.000000 0.000000 23.219608 -8.451030 -32.451730 -4.265219 -12.505202 37.543542 -1.668606 -22.131333 -40.314812 -0.675394 -5.250190 14.624545 -5.416222 -1.359932 3.145566 -0.411567 -2.163013 -3.656727 2.771194 -0.868842 -5.388279 7.020296 10.201596 -0.801146 -10.682153 13.787956 1.215635 -3.982041 6.830796 1.752628 0.000000 0.000000 0.000000 14.791719 15.925066 -43.653512 37.168409 -46.299545 16.361815 13.580945 -27.954514 23.673069 0.000000 0.000000 0.000000 -7.125000 0.000000 0.000000 -9.661522 5.991253 -8.728038 0.000000 0.000000 0.000000 -12.481138 16.523359 35.398394 -23.825653 -34.979087 -7.606426 -23.338407 0.265121 30.552494 0.000000 0.000000 0.000000 7.125000 0.000000 0.000000 9.801051 62.453776 -4.180885
-12.346952 17.001060 -10.263890 2.020035 -8.823320 6.446462 0.000000 0.000000 0.000000 -22.458572 12.946653 -24.121551 4.482833 12.776468 38.537719 2.557237 16.876890 -39.858873 0.022999 0.966195 2.655923 0.000000 0.000000 0.000000 26.821927 -12.474208 -34.589877 -4.180124 -12.396279 37.148739 -1.680975 -24.874277 -43.105163 -0.744689 -5.512431 15.376122 -4.915682 -0.566566 3.194447 0.105255 -1.047559 -3.776550 2.949906 -0.313169 -5.635275 9.129617 11.810562 0.007278 -11.448282 16.049985 1.506213 -4.345128 7.980542 2.114777 0.000000 0.000000 0.000000 14.983910 15.802337 -46.427079 42.340477 -49.396940 20.198678 13.397847 -29.424460 23.119993 0.000000 0.000000 0.000000 -7.125000 0.000000 0.000000 -9.749873 6.567607 -8.700873 0.000000 0.000000 0.000000 -10.927709 17.696474 38.789149 -22.115180 -33.106799 -6.648713 -21.952578 1.824796 29.976848 0.000000 0.000000 0.000000 7.125000 0.000000 0.000000 11.027672 61.522351 -4.468977
-11.766734 17.023730 -10.467639 0.321507 -0.197027 7.290611 0.000000 0.000000 0.000000 -22.303114 8.336461 -22.232528 3.573254 11.569595 34.226063 2.996338 12.368944 -38.769736 0.000959 0.109224 0.300213 0.000000 0.000000 0.000000 26.395612 -16.102300 -38.309901 -4.778154 -13.129442 39.855078 -1.426292 -24.533195 -41.657334 -0.754801 -5.548255 15.479201 -5.373961 0.696544 2.961195 0.049225 0.638174 -3.556034 3.015923 0.531838 -5.424787 10.578609 11.761359 -0.988338 -12.221733 16.033589 2.694620 -4.669892 7.925477 2.807694 0.000000 0.000000 0.000000 13.463006 16.730403 -43.929012 41.248209 -48.791666 19.373317 14.437418 -31.393052 23.039700 0.000000 0.000000 0.000000 -7.125000 0.000000 0.000000 -9.099592 6.518778 -8.113084 0.000000 0.000000 0.000000 -10.070259 17.203499 38.609469 -22.373272 -33.396199 -6.790169 -23.787354 2.374690 29.713762 0.000000 0.000000 0.000000 7.125000 0.000000 0.000000 8.757690 61.720728 -3.581831
-11.041037 17.082642 -10.606659 0.843673 12.949364 7.763564 0.000000 0.000000 0.000000 -24.435646 0.145212 -19.393018 3.089390 10.838384 31.736647 2.871007 8.474205 -35.812654 0.016432 0.827861 2.275393 0.000000 0.000000 0.000000 17.908098 -12.434558 -35.518686 -6.068564 -14.494485 45.256349 -1.056716 -20.653967 -35.740633 -1.943191 -8.746536 25.005677 -5.301693 -0.017782 3.441089 -0.230852 -0.362057 -3.852220 2.762825 0.047664 -5.919773 10.213108 10.464129 -0.221656 -11.736721 14.294120 2.332580 -4.666662 7.099638 2.314636 0.000000 0.000000 0.000000 11.371661 18.092915 -40.322667 34.837642 -44.695846 14.699033 19.049420 -34.551750 22.601280 0.000000 0.000000 0.000000 -7.125000 0.000000 0.000000 -6.190096 6.327135 -5.503145 0.000000 0.000000 0.000000 -9.884921 18.803356 37.777456 -22.426969 -33.456143 -6.819772 -23.596454 -0.960775 30.670541 0.000000 0.000000 0.000000 7.125000 0.000000 0.000000 9.573934 62.640300 -4.123044
-10.403974 17.012746 -10.580879 1.861155 25.902634 8.732555 0.000000 0.000000 0.000000 -26.646386 -4.931059 -17.999443 3.079931 10.823258 31.686245 2.345020 5.544302 -31.308278 0.054532 -1.491511 -4.102612 0.000000 0.000000 0.000000 12.942870 0.539566 -30.398484 -7.977445 -16.102195 52.480745 -0.563806 -14.289794 -25.590462 -0.086503 -1.835958 5.054163 -6.038828 -0.406447 3.589954 -0.387657 -0.934312 -3.645088 3.060168 -0.215096 -5.733000 9.446555 8.893455 -2.041805 -10.846947 12.049434 2.985767 -4.328038 5.929459 2.454698 0.000000 0.000000 0.000000 12.444020 16.832156 -42.224810 32.218549 -42.720728 12.888811 18.087958 -33.041481 23.752004 0.000000 0.000000 0.000000 -7.125000 0.000000 0.000000 -6.877774 5.290645 -6.260786 0.000000 0.000000 0.000000 -9.803106 21.914367 38.680307 -21.858947 -32.817162 -6.509201 -20.103291 -1.270283 28.294525 0.000000 0.000000 0.000000 7.125000 0.000000 0.000000 12.044308 59.397468 -4.273424
-9.686427 16.918659 -10.252706 3.681451 38.224603 9.979137 0.000000 0.000000 0.000000 -28.747853 -7.165987 -14.145030 2.859138 10.463349 30.490716 2.457864 -0.174078 -29.661246 0.452984 -4.313428 -11.960941 0.000000 0.000000 0.000000 13.795132 7.474538 -33.860962 -9.618347 -17.189547 58.204977 -0.751929 -8.432889 -21.538875 -0.000112 -0.028031 0.076920 -7.534936 -1.393330 4.149429 -0.508383 -2.388482 -3.414421 3.899143 -0.882255 -5.626830 8.532333 6.844026 -2.846615 -9.026017 9.230340 4.086937 -3.756094 4.525015 2.492895 0.000000 0.000000 0.000000 13.463959 16.009653 -43.204223 34.112248 -44.167329 14.191313 17.886395 -31.816446 24.003314 0.000000 0.000000 0.000000 -7.125000 0.000000 0.000000 -7.021866 5.064076 -6.424016 0.000000 0.000000 0.000000 -9.509693 23.989561 40.026205 -20.559803 -31.310871 -5.819472 -17.145247 1.674358 28.752070 0.000000 0.000000 0.000000 7.125000 0.000000 0.000000 15.523366 59.166100 -5.454640
-8.792681 16.890681 -9.700184 5.125613 47.847946 11.771637 0.000000 0.000000 0.000000 -29.840784 -7.774166 -8.514196 2.191537 9.253969 26.593045 2.094642 -5.014732 -26.260252 0.050494 -1.448739 -3.984504 0.000000 0.000000 0.000000 13.926750 13.681784 -39.334456 -7.641837 -15.848802 51.261011 -0.759771 -6.301410 -19.934371 -0.000116 -0.055972 0.153680 -8.087717 -1.863628 5.027696 -0.459664 -3.121671 -3.140952 4.348743 -1.223095 -5.724674 7.644898 5.390247 -5.072212 -7.522151 7.126423 5.062707 -3.195383 3.450719 2.874244 0.000000 0.000000 0.000000 14.845001 13.224540 -45.613244 39.725607 -47.905986 18.235517 16.923621 -32.307722 24.520971 0.000000 0.000000 0.000000 -7.125000 0.000000 0.000000 -7.653662 4.680561 -7.068083 0.000000 0.000000 0.000000 -8.849492 25.358260 39.525219 -20.380496 -31.098073 -5.726596 -18.377043 0.150604 29.142269 0.000000 0.000000 0.000000 7.125000 0.000000 0.000000 14.451384 59.831224 -5.298269
-7.706805 16.809977 -8.975272 7.218704 53.609290 13.173066 0.000000 0.000000 0.000000 -31.211837 -5.886666 0.361786 1.184426 6.905570 19.436266 1.818172 -5.815269 -24.299659 0.045076 -1.343517 -3.694986 0.000000 0.000000 0.000000 11.876232 17.094262 -42.388470 -4.390886 -12.662793 38.119470 -0.553129 -6.580403 -17.975088 -0.056513 -1.532450 4.215134 -8.637404 -1.693081 5.941093 -0.463354 -2.984830 -2.310757 4.661217 -1.175389 -5.360816 7.476113 3.999759 -5.360041 -7.229331 5.173906 3.758864 -3.529036 2.499127 2.625924 0.000000 0.000000 0.000000 15.802627 9.157088 -47.664843 49.025363 -52.594061 25.398084 18.364976 -32.417541 24.258262 0.000000 0.000000 0.000000 -7.125000 0.000000 0.000000 -6.747120 4.730442 -6.211978 0.000000 0.000000 0.000000 -9.907233 25.113351 40.846383 -20.236127 -30.925736 -5.652165 -17.417472 0.821146 29.130050 0.000000 0.000000 0.000000 7.125000 0.000000 0.000000 15.480483 59.595773 -5.599024
-6.414978 16.726455 -8.016729 8.466389 58.728203 13.645922 0.000000 0.000000 0.000000 -30.038308 -2.568441 9.471616 0.599322 4.955425 13.781630 1.155619 -7.734099 -19.215301 0.260828 -3.282227 -9.065821 0.000000 0.000000 0.000000 11.073215 16.359414 -41.673596 -3.358347 -11.253521 33.139841 -0.438541 -9.863153 -19.732104 -0.274243 -3.367219 9.303043 -7.817732 -1.875242 5.682789 0.037870 -3.106130 -2.097850 4.722726 -1.281118 -4.978338 6.086065 2.738483 -5.253383 -6.961639 3.585213 3.878316 -3.242804 1.696183 2.462220 0.000000 0.000000 0.000000 16.580716 8.248987 -49.293288 56.458026 -55.289715 31.411229 17.366938 -32.992243 25.119057 0.000000 0.000000 0.000000 -7.125000 0.000000 0.000000 -7.428388 4.006201 -6.950966 0.000000 0.000000 0.000000 -11.245450 25.117884 39.020985 -20.371495 -31.087261 -5.721951 -18.900274 2.559061 29.610274 0.000000 0.000000 0.000000 7.125000 0.000000 0.000000 14.189797 60.412250 -5.397175
-4.885703 16.724506 -6.833403 5.389678 60.710264 9.935998 0.000000 0.000000 0.000000 -25.434339 -0.603587 8.194511 2.145597 9.151957 26.279949 -0.094098 -9.811070 -5.089749 0.629812 -5.073582 -14.119398 0.000000 0.000000 0.000000 15.612858 13.028585 -38.565866 -4.819492 -13.177565 40.036902 0.121237 -10.861387 -13.476053 -0.357234 -3.827512 10.593269 -5.067728 -1.534877 4.543598 1.033607 -2.340527 -2.523874 4.121369 -0.969973 -4.931369 5.458681 2.081011 -4.573940 -7.405902 2.809089 3.883977 -3.310827 1.303495 2.276712 0.000000 0.000000 0.000000 14.974004 12.337983 -47.475899 51.803375 -53.695840 27.621348 17.258865 -34.015902 25.272618 0.000000 0.000000 0.000000 -7.125000 0.000000 0.000000 -7.506410 3.866801 -7.044919 0.000000 0.000000 0.000000 -12.543702 23.763635 37.776394 -19.446534 -29.969668 -5.252052 -19.541172 4.250062 30.503514 0.000000 0.000000 0.000000 7.125000 0.000000 0.000000 14.095898 61.441800 -5.706128
-3.492154 16.951097 -5.690055 1.137148 60.859232 5.558828 0.000000 0.000000 0.000000 -20.635841 -4.307692 -9.134517 9.325242 17.012209 57.207802 0.219614 -0.880806 9.216068 0.200773 -2.883722 -7.955218 0.000000 0.000000 0.000000 20.815175 11.030954 -30.773682 -4.742057 -13.087315 39.696251 -0.359985 -8.820291 -17.790875 -0.495659 -4.513772 12.526610 -2.581286 -1.111949 4.956936 1.665732 -1.582090 -2.843238 3.337623 -0.645961 -5.622036 3.180525 1.717203 -5.076786 -5.892156 2.422873 4.767364 -2.384368 1.096817 2.549206 0.000000 0.000000 0.000000 12.989268 16.491332 -43.654214 37.811791 -46.718319 16.828549 17.154206 -33.084150 23.081176 0.000000 0.000000 0.000000 -7.125000 0.000000 0.000000 -7.409220 6.111961 -6.635344 0.000000 0.000000 0.000000 -12.896205 19.860168 37.775880 -21.866375 -32.825631 -6.513305 -20.764404 3.889151 31.678263 0.000000 0.000000 0.000000 7.125000 0.000000 0.000000 13.572402 62.902511 -5.957498
-2.181385 17.102439 -4.638018 -1.184278 57.778411 3.600668 0.000000 0.000000 0.000000 -17.921630 -6.033587 -27.806809 12.304690 18.516413 66.951275 0.171377 -1.015603 -7.502273 0.306252 -3.556296 -9.831799 0.000000 0.000000 0.000000 24.694853 11.376421 -21.406580 -3.984338 -12.139430 36.227059 -0.967686 -7.229642 -22.542971 -0.521430 -4.621121 12.832232 -1.599909 0.045469 5.103778 1.141213 0.008091 -2.704791 2.084153 0.091370 -5.675157 3.637163 1.522443 -4.600446 -5.431247 2.094765 4.446822 -2.322888 0.962115 2.335921 0.000000 0.000000 0.000000 12.547142 18.415406 -39.322178 24.524830 -35.712441 8.011643 12.651827 -26.931194 21.156961 0.000000 0.000000 0.000000 -7.125000 0.000000 0.000000 -10.148675 8.616351 -8.653852 0.000000 0.000000 0.000000 -13.178707 17.244667 41.977845 -31.620492 -42.239885 -12.485900 -22.874535 0.874582 32.002592 0.000000 0.000000 0.000000 7.125000 0.000000 0.000000 11.355603 63.782831 -5.202878
